<?xml version="1.0" encoding="UTF-8"?><svg xmlns="http://www.w3.org/2000/svg" xmlns:xlink="http://www.w3.org/1999/xlink" contentScriptType="text/ecmascript" width="192.75pt" zoomAndPan="magnify" contentStyleType="text/css" viewBox="0 0 192.75 30.000001" height="30.000001pt" preserveAspectRatio="xMidYMid meet" version="1.2"><defs><g/><clipPath xml:id="clip1" id="clip1"><path d="M 18.703125 3.859375 L 39.050781 3.859375 L 39.050781 24.207031 L 18.703125 24.207031 Z M 18.703125 3.859375 "/></clipPath><clipPath xml:id="clip2" id="clip2"><path d="M 33.238281 5.550781 L 50.679688 5.550781 L 50.679688 22.992188 L 33.238281 22.992188 Z M 33.238281 5.550781 "/></clipPath></defs><g xml:id="surface1" id="surface1"><g clip-rule="nonzero" clip-path="url(#clip1)"><path style=" stroke:none;fill-rule:nonzero;fill:rgb(100%,100%,100%);fill-opacity:1;" d="M 39.050781 14.035156 C 39.050781 19.652344 34.496094 24.207031 28.875 24.207031 C 23.257812 24.207031 18.703125 19.652344 18.703125 14.035156 C 18.703125 8.414062 23.257812 3.859375 28.875 3.859375 C 34.496094 3.859375 39.050781 8.414062 39.050781 14.035156 Z M 39.050781 14.035156 "/></g><g clip-rule="nonzero" clip-path="url(#clip2)"><path style=" stroke:none;fill-rule:nonzero;fill:rgb(100%,84.309387%,13.729858%);fill-opacity:1;" d="M 50.679688 14.269531 C 50.679688 19.085938 46.773438 22.992188 41.957031 22.992188 C 37.140625 22.992188 33.238281 19.085938 33.238281 14.269531 C 33.238281 9.453125 37.140625 5.550781 41.957031 5.550781 C 46.773438 5.550781 50.679688 9.453125 50.679688 14.269531 Z M 50.679688 14.269531 "/></g><g style="fill:rgb(100%,100%,100%);fill-opacity:1;"><g transform="translate(57.001555, 20.460587)"><path style="stroke:none;" d="M 7.984375 0.25 C 5.710938 0.25 3.988281 -0.363281 2.8125 -1.59375 C 1.644531 -2.820312 1.0625 -4.582031 1.0625 -6.875 C 1.0625 -9.1875 1.691406 -10.972656 2.953125 -12.234375 C 4.222656 -13.503906 6.023438 -14.140625 8.359375 -14.140625 C 9.972656 -14.140625 11.492188 -13.789062 12.921875 -13.09375 L 11.5 -9.546875 C 10.925781 -9.796875 10.394531 -9.992188 9.90625 -10.140625 C 9.414062 -10.296875 8.898438 -10.375 8.359375 -10.375 C 7.585938 -10.375 6.988281 -10.070312 6.5625 -9.46875 C 6.132812 -8.863281 5.921875 -8.007812 5.921875 -6.90625 C 5.921875 -4.675781 6.742188 -3.5625 8.390625 -3.5625 C 9.796875 -3.5625 11.144531 -3.972656 12.4375 -4.796875 L 12.4375 -0.984375 C 11.207031 -0.160156 9.722656 0.25 7.984375 0.25 Z M 7.984375 0.25 "/></g></g><g style="fill:rgb(100%,100%,100%);fill-opacity:1;"><g transform="translate(70.547168, 20.460587)"><path style="stroke:none;" d="M 10.046875 -14.140625 C 10.460938 -14.140625 10.859375 -14.109375 11.234375 -14.046875 L 11.5 -14 L 11.078125 -9.46875 C 10.679688 -9.570312 10.140625 -9.625 9.453125 -9.625 C 8.398438 -9.625 7.632812 -9.382812 7.15625 -8.90625 C 6.6875 -8.425781 6.453125 -7.734375 6.453125 -6.828125 L 6.453125 0 L 1.65625 0 L 1.65625 -13.90625 L 5.21875 -13.90625 L 5.96875 -11.671875 L 6.203125 -11.671875 C 6.609375 -12.410156 7.164062 -13.003906 7.875 -13.453125 C 8.59375 -13.910156 9.316406 -14.140625 10.046875 -14.140625 Z M 10.046875 -14.140625 "/></g></g><g style="fill:rgb(100%,100%,100%);fill-opacity:1;"><g transform="translate(82.338231, 20.460587)"><path style="stroke:none;" d="M 8.359375 0.25 C 6.046875 0.25 4.25 -0.363281 2.96875 -1.59375 C 1.695312 -2.832031 1.0625 -4.585938 1.0625 -6.859375 C 1.0625 -9.203125 1.648438 -11 2.828125 -12.25 C 4.015625 -13.507812 5.707031 -14.140625 7.90625 -14.140625 C 10 -14.140625 11.613281 -13.59375 12.75 -12.5 C 13.894531 -11.414062 14.46875 -9.847656 14.46875 -7.796875 L 14.46875 -5.65625 L 5.90625 -5.65625 C 5.9375 -4.875 6.21875 -4.265625 6.75 -3.828125 C 7.289062 -3.390625 8.019531 -3.171875 8.9375 -3.171875 C 9.78125 -3.171875 10.554688 -3.25 11.265625 -3.40625 C 11.972656 -3.5625 12.738281 -3.832031 13.5625 -4.21875 L 13.5625 -0.765625 C 12.8125 -0.390625 12.035156 -0.128906 11.234375 0.015625 C 10.429688 0.171875 9.472656 0.25 8.359375 0.25 Z M 8.078125 -10.875 C 7.515625 -10.875 7.039062 -10.695312 6.65625 -10.34375 C 6.28125 -9.988281 6.0625 -9.429688 6 -8.671875 L 10.125 -8.671875 C 10.101562 -9.335938 9.910156 -9.867188 9.546875 -10.265625 C 9.179688 -10.671875 8.691406 -10.875 8.078125 -10.875 Z M 8.078125 -10.875 "/></g></g><g style="fill:rgb(100%,100%,100%);fill-opacity:1;"><g transform="translate(97.871516, 20.460587)"><path style="stroke:none;" d="M 10.71875 0 L 9.796875 -1.84375 L 9.703125 -1.84375 C 9.054688 -1.039062 8.394531 -0.488281 7.71875 -0.1875 C 7.050781 0.101562 6.1875 0.25 5.125 0.25 C 3.820312 0.25 2.789062 -0.140625 2.03125 -0.921875 C 1.28125 -1.710938 0.90625 -2.820312 0.90625 -4.25 C 0.90625 -5.726562 1.421875 -6.828125 2.453125 -7.546875 C 3.484375 -8.273438 4.976562 -8.679688 6.9375 -8.765625 L 9.25 -8.84375 L 9.25 -9.046875 C 9.25 -10.191406 8.6875 -10.765625 7.5625 -10.765625 C 6.539062 -10.765625 5.25 -10.421875 3.6875 -9.734375 L 2.3125 -12.890625 C 3.925781 -13.722656 5.96875 -14.140625 8.4375 -14.140625 C 10.21875 -14.140625 11.597656 -13.695312 12.578125 -12.8125 C 13.554688 -11.9375 14.046875 -10.703125 14.046875 -9.109375 L 14.046875 0 Z M 7.171875 -3.140625 C 7.742188 -3.140625 8.238281 -3.320312 8.65625 -3.6875 C 9.070312 -4.0625 9.28125 -4.539062 9.28125 -5.125 L 9.28125 -6.203125 L 8.171875 -6.15625 C 6.585938 -6.101562 5.796875 -5.523438 5.796875 -4.421875 C 5.796875 -3.566406 6.253906 -3.140625 7.171875 -3.140625 Z M 7.171875 -3.140625 "/></g></g><g style="fill:rgb(100%,100%,100%);fill-opacity:1;"><g transform="translate(113.527496, 20.460587)"><path style="stroke:none;" d="M 8.46875 -3.546875 C 9.113281 -3.546875 9.882812 -3.707031 10.78125 -4.03125 L 10.78125 -0.53125 C 10.132812 -0.25 9.519531 -0.0507812 8.9375 0.0625 C 8.351562 0.1875 7.664062 0.25 6.875 0.25 C 5.269531 0.25 4.109375 -0.144531 3.390625 -0.9375 C 2.679688 -1.726562 2.328125 -2.941406 2.328125 -4.578125 L 2.328125 -10.3125 L 0.65625 -10.3125 L 0.65625 -12.25 L 2.78125 -13.765625 L 4.03125 -16.6875 L 7.171875 -16.6875 L 7.171875 -13.90625 L 10.578125 -13.90625 L 10.578125 -10.3125 L 7.171875 -10.3125 L 7.171875 -4.890625 C 7.171875 -3.992188 7.601562 -3.546875 8.46875 -3.546875 Z M 8.46875 -3.546875 "/></g></g><g style="fill:rgb(100%,100%,100%);fill-opacity:1;"><g transform="translate(125.085437, 20.460587)"><path style="stroke:none;" d="M 6.484375 0 L 1.6875 0 L 1.6875 -13.90625 L 6.484375 -13.90625 Z M 1.5625 -17.359375 C 1.5625 -18.078125 1.757812 -18.613281 2.15625 -18.96875 C 2.5625 -19.320312 3.207031 -19.5 4.09375 -19.5 C 4.988281 -19.5 5.640625 -19.316406 6.046875 -18.953125 C 6.453125 -18.597656 6.65625 -18.066406 6.65625 -17.359375 C 6.65625 -15.953125 5.800781 -15.25 4.09375 -15.25 C 2.40625 -15.25 1.5625 -15.953125 1.5625 -17.359375 Z M 1.5625 -17.359375 "/></g></g><g style="fill:rgb(100%,100%,100%);fill-opacity:1;"><g transform="translate(133.256976, 20.460587)"><path style="stroke:none;" d="M 5.296875 0 L 0 -13.90625 L 5 -13.90625 L 7.359375 -5.6875 C 7.367188 -5.644531 7.382812 -5.570312 7.40625 -5.46875 C 7.4375 -5.375 7.460938 -5.257812 7.484375 -5.125 C 7.503906 -4.988281 7.523438 -4.84375 7.546875 -4.6875 C 7.566406 -4.539062 7.578125 -4.398438 7.578125 -4.265625 L 7.671875 -4.265625 C 7.671875 -4.691406 7.742188 -5.15625 7.890625 -5.65625 L 10.359375 -13.90625 L 15.34375 -13.90625 L 10.046875 0 Z M 5.296875 0 "/></g></g><g style="fill:rgb(100%,100%,100%);fill-opacity:1;"><g transform="translate(148.606216, 20.460587)"><path style="stroke:none;" d="M 8.359375 0.25 C 6.046875 0.25 4.25 -0.363281 2.96875 -1.59375 C 1.695312 -2.832031 1.0625 -4.585938 1.0625 -6.859375 C 1.0625 -9.203125 1.648438 -11 2.828125 -12.25 C 4.015625 -13.507812 5.707031 -14.140625 7.90625 -14.140625 C 10 -14.140625 11.613281 -13.59375 12.75 -12.5 C 13.894531 -11.414062 14.46875 -9.847656 14.46875 -7.796875 L 14.46875 -5.65625 L 5.90625 -5.65625 C 5.9375 -4.875 6.21875 -4.265625 6.75 -3.828125 C 7.289062 -3.390625 8.019531 -3.171875 8.9375 -3.171875 C 9.78125 -3.171875 10.554688 -3.25 11.265625 -3.40625 C 11.972656 -3.5625 12.738281 -3.832031 13.5625 -4.21875 L 13.5625 -0.765625 C 12.8125 -0.390625 12.035156 -0.128906 11.234375 0.015625 C 10.429688 0.171875 9.472656 0.25 8.359375 0.25 Z M 8.078125 -10.875 C 7.515625 -10.875 7.039062 -10.695312 6.65625 -10.34375 C 6.28125 -9.988281 6.0625 -9.429688 6 -8.671875 L 10.125 -8.671875 C 10.101562 -9.335938 9.910156 -9.867188 9.546875 -10.265625 C 9.179688 -10.671875 8.691406 -10.875 8.078125 -10.875 Z M 8.078125 -10.875 "/></g></g></g></svg>